<svg width="250" height="321" viewBox="0 0 250 321" fill="none" xmlns="http://www.w3.org/2000/svg">
<path fill-rule="evenodd" clip-rule="evenodd" d="M61.6278 137.486C59.3919 138.577 57.5361 139.323 55.7876 139.832L53.2162 140.58L55.6346 141.648C57.2772 142.372 58.8392 143.297 60.4098 144.474L61.6219 145.382L62.2069 144.087C62.9752 142.386 63.3491 140.45 63.3181 138.334L63.2935 136.673L61.6278 137.486ZM169.035 142.982C166.943 146.269 164.417 149.506 161.974 152.636C156.582 159.543 151.006 166.686 149.29 175.228C149.156 175.936 149.061 177.537 149.003 180.03L150.602 179.463C155.938 177.571 161.601 176.163 167.077 174.802C169.193 174.276 171.381 173.732 173.526 173.166C174.4 172.963 175.269 172.725 176.109 172.495C178.148 171.937 180.074 171.409 182.1 171.32L182.716 171.292L183.025 170.827C185.815 166.62 183.722 162.61 181.326 158.862C179.887 156.131 178.036 153.564 176.245 151.082C174.389 148.509 172.47 145.848 171.068 143.064L170.147 141.236L169.035 142.982ZM66.0522 177.832C69.2243 180.726 72.1708 183.667 74.8099 186.572L76.814 185.77C75.8452 181.479 72.8377 178.456 67.3487 176.255L66.0522 177.832ZM172.171 242.484C171.854 242.484 171.556 242.592 171.333 242.786C171.106 242.984 170.982 243.25 170.983 243.535L172.171 243.532V242.484ZM40.1721 314.037C38.3084 311.252 38.0345 306.88 40.8276 304.51C39.8882 299.39 41.7338 293.669 45.8211 289.593L45.8306 289.606C51.8992 281.689 52.3452 278.869 47.9112 270.02C39.9869 269.756 31.8246 269.677 24.0874 268.065L24.3768 266.559C24.0904 266.492 22.6275 266.158 22.3133 266.087C22.3553 266.368 22.5734 267.647 22.5681 267.903C22.2066 268.247 21.333 268.567 21.1706 267.889C16.3033 249.768 11.9472 232.006 7.21397 213.912C2.26022 195.649 -7.70212 166.44 16.6838 156.375L16.1803 154.504C14.8337 154.504 14.2926 153.226 13.6753 151.42C10.9238 144.96 16.274 138.626 21.2771 134.63C28.1157 128.666 34.4246 122.046 40.5277 115.645C57.9369 97.2087 81.6247 72.6063 111.904 76.786L111.802 77.872C116.539 78.3907 121.484 79.4817 126.28 78.7218C142.655 76.251 160.469 81.8406 170.54 93.3175L170.91 91.1784C170.945 90.9766 171.028 90.7899 171.395 90.7899C171.874 90.7751 172.128 91.1171 172.305 91.4325C189.687 97.4172 196.888 116.897 202.442 130.249C203.151 132.506 202.951 133.174 202.89 133.306L201.881 133.83C212.357 145.97 218.113 160.573 223.052 174.418C224.684 178.109 224.854 180.667 222.128 182.899C240.102 192.308 254.207 206.971 246.232 223.688C235.824 239.953 208.265 250.274 187.565 259.617C179.345 263.496 167.389 265.562 159.826 271.915C159.32 272.565 158.595 273.2 158.156 273.147C154.645 273.6 149.42 254.498 150.214 252.968C146.508 254.123 142.386 254.061 138.51 254.664C138.857 255.328 139.994 256.228 139.143 256.968C139.201 259.211 138.805 261.636 138.238 263.923C142.89 263.273 142.784 265.399 138.309 264.274C138.187 265.265 137.877 267.791 137.758 268.748C139.094 268.237 141.753 267.878 142.684 268.678C142.304 269.744 139.009 268.74 137.74 269.056C136.997 273.852 136.755 278.567 136.235 283.349C140.195 286.636 146.381 287.412 149.915 290.967C152.91 293.672 152.478 298.212 148.965 300.389C151.117 302.587 149.395 306.236 146.253 306.833C141.973 307.703 137.498 306.499 133.278 305.488C126.263 303.476 118.916 300.338 110.819 295.897C107.615 294.159 105.229 291.428 104.096 288.205C95.8808 266.149 93.6855 251.162 97.5631 243.64C99.7759 242.184 102.242 243.083 104.285 242.287C105.259 241.908 106.137 241.399 106.845 239.591C96.187 238.679 80.6505 240.373 72.1072 235.924L72.4078 235.367C71.6189 234.929 69.8855 233.094 69.226 232.504C70.4147 244.959 71.3702 257.738 71.843 270.15C73.4102 272.446 74.7409 274.822 76.2017 277.474C77.2178 278.343 78.9954 279.833 77.9524 280.819C77.9522 280.819 86.7243 298.713 89.4051 307.758C91.9574 307.851 92.9921 311.618 92.8949 314.119C92.5068 318.672 85.8 319.155 79.9205 319.601C75.8974 319.969 71.7609 320.159 67.6859 320.159C60.3232 320.164 41.9138 319.723 40.1721 314.037Z" fill="white"/>
<path fill-rule="evenodd" clip-rule="evenodd" d="M144.543 252.079C141.647 252.673 138.727 253.165 135.815 253.694C135.067 253.98 131.309 254.026 131.994 255.094C131.99 255.097 131.989 255.1 131.985 255.102C132.75 255.615 133.786 255.324 134.708 255.392C127.545 257.945 122.632 252.683 123.95 246.678C124.137 245.606 124.38 244.385 124.911 243.405C125.192 242.966 127.212 239.58 127.568 240.736C127.289 240.882 128.08 240.942 127.969 240.418C152.568 240.181 146.511 230.336 148.846 251.24C147.399 251.336 145.954 251.79 144.543 252.079ZM138.565 261.206C138.429 261.729 138.28 262.263 138.105 262.781C133.293 263.509 129.753 265.634 137.373 265.233C137.154 266.016 136.948 266.802 136.753 267.592C135.81 267.907 132.384 268.907 132.559 269.861C133.747 270.093 135.043 269.665 136.263 269.71C135.47 274.28 134.313 278.954 134.418 283.586C134.404 285.112 137.081 285.4 137.424 283.888C140.664 288.03 150.439 289.647 149.512 295.701C148.995 296.938 148.318 297.781 146.864 297.826C145.831 298.058 144.679 299.119 145.273 300.066L145.247 300.075C145.359 300.931 146.484 301.241 147.221 301.487C147.955 301.984 147.982 302.785 147.399 303.533C144.55 306.146 136.425 303.543 132.893 302.683C125.724 300.517 118.949 297.38 112.485 293.947C109.455 292.428 107.372 289.884 106.386 286.991C101.943 273.224 96.1777 258.615 98.7913 244.214C99.9234 242.812 102.376 243.067 103.972 242.324C101.333 250.801 105.707 259.603 107.488 267.96C111.162 283.008 114.057 295.01 133.105 300.032C135.675 300.5 141.216 302.196 143.123 300.317C143.73 299.811 143.669 298.966 143.123 298.451C142.159 297.329 140.564 297.463 139.124 297.336C135.396 296.931 131.748 295.945 128.423 294.422C121.031 291.244 115.893 285.115 114.587 278.049C112.369 270.093 110.377 262.073 107.785 254.201C106.012 248.845 103.115 244.185 109.529 240.241C113.869 240.352 118.214 240.456 122.556 240.469C121.487 242.033 120.304 244.004 120.907 245.857C118.259 251.082 121.678 258.046 128.274 259.378C131.924 260.062 135.714 259.247 139.083 257.905C139.03 259.008 138.869 260.076 138.565 261.206ZM70.9214 235.614C70.9027 235.4 70.8837 235.185 70.8646 234.969C71.1996 235.29 71.5833 235.578 71.9956 235.838C71.6403 235.759 71.2845 235.678 70.9214 235.614ZM71.5588 270.898C71.9064 271.988 72.2947 273.069 72.7162 274.139C66.4522 272.565 58.0999 271.257 52.8933 275.532C52.15 273.788 51.2634 272.136 50.0204 270.643C56.3593 270.016 62.746 270.362 69.0832 269.801C69.5511 270.571 70.6214 271.029 71.5588 270.898ZM52.1822 283.478C52.2049 283.422 52.2295 283.366 52.2522 283.312C52.6092 283.273 52.9639 283.236 53.3189 283.195C52.9387 283.286 52.5604 283.379 52.1822 283.478ZM74.2522 277.939C74.4886 278.643 75.1135 279.076 75.7442 279.123C76.3682 279.716 76.6154 280.612 77.4485 281.018C80.6048 290.102 84.8493 298.927 86.9881 308.27C72.3601 312.391 58.6494 312.627 43.9286 308.472C44.2823 308.17 44.4488 307.764 44.4563 307.313C44.4656 307.321 44.4769 307.328 44.4883 307.336C42.4975 298.831 43.6204 296.155 48.7042 288.884C55.5349 288.628 62.386 288.408 69.2232 288.586C70.8285 288.75 73.9445 287.601 72.5405 285.932C70.8932 284.36 68.3038 284.785 66.0911 284.888C60.928 285.113 55.7764 285.775 50.8564 287.187C51.3735 286.23 51.534 285.094 51.9497 284.08C56.7193 283.609 61.5361 283.499 66.32 283.845C68.1035 283.991 70.2048 284.736 71.7479 283.654C74.5047 279.482 54.9878 281.769 52.7441 282.235C53.4828 280.726 54.2708 279.16 53.9335 277.466C58.8515 274.097 69.1615 275.261 74.2522 277.939ZM88.7225 311.227C89.1159 311.467 89.6192 311.456 90.0447 311.291C91.0295 313.364 90.346 315.485 87.6197 315.972C82.6517 316.985 77.4735 317.175 72.393 317.435C66.9857 317.619 61.5593 317.482 56.1731 317.036C47.5293 316.811 39.8496 314.695 40.2026 305.871C40.5485 307.049 40.7743 308.856 42.5138 308.93C56.0883 315.166 73.7132 315.76 87.7203 310.339C87.9624 310.675 88.2818 310.959 88.7225 311.227ZM23.9279 267.158C23.9261 267.133 23.9261 267.112 23.9221 267.087C24.0681 267.12 24.2145 267.158 24.3628 267.189C24.2173 267.177 24.0736 267.166 23.9279 267.158ZM62.4371 138.018C62.4638 139.842 62.1752 141.691 61.4043 143.398C59.8706 142.248 58.2138 141.238 56.4019 140.439C58.5066 139.826 60.5021 138.962 62.4371 138.018ZM18.7531 154.665C19.0366 154.23 17.7749 154.762 17.5786 154.784C18.4007 154.209 18.2332 152.988 17.28 152.661C12.7591 145.804 18.2432 139.577 24.0397 135.021C33.9323 126.51 41.9842 116.595 51.1819 107.538C62.7851 109.222 73.9931 113.545 82.6495 120.51C73.7841 127.625 64.5367 135.103 53.3798 139.355C52.3426 138.918 50.9632 139.037 50.6182 140.016C49.338 140.219 48.0616 140.502 46.7845 140.684C46.72 140.692 46.7295 140.774 46.7845 140.787C48.0398 141.164 49.3335 141.414 50.6748 141.34C63.5778 145.25 68.4044 157.33 77.5843 165.22C85.0794 170.926 95.8297 175.136 96.9113 184.843C98.7164 187.981 100.02 191.255 99.5408 194.77C99.6666 197.514 98.5653 200.237 99.4652 202.899C97.5725 209.195 95.403 215.744 89.9823 220.491C89.8291 220.458 89.6702 220.466 89.5227 220.529C89.9121 218.425 90.3301 216.325 90.7426 214.225C92.3048 211.447 93.3033 208.458 93.9578 205.426C94.224 203.898 91.6436 203.591 91.5349 205.148C89.775 210.604 87.6425 217.069 81.5243 220.243C82.6374 216.577 83.9809 212.952 85.8346 209.518C86.5439 208.375 87.2134 207.212 87.8697 206.046C88.577 204.783 86.4642 203.672 85.6795 204.932C82.8218 209.671 80.1266 215.037 74.6834 217.873C76.4017 212.93 78.6654 208.088 80.8109 203.268C81.0496 202.773 80.5539 202.187 80.0188 202.054C79.3663 201.891 78.8594 202.255 78.623 202.743C77.7617 204.48 77.1081 206.491 75.718 207.996C75.1589 209.664 71.2571 212.241 73.2403 208.417C75.1685 203.499 76.4777 198.252 79.2451 193.664C80.0061 185.343 78.5612 180.137 69.34 176.285C68.0033 175.703 66.3446 174.958 64.7407 174.708C60.2581 170.828 55.4714 167.223 50.323 163.951C39.8913 157.093 24.0318 150.967 12.0711 158.619C13.9908 156.97 16.2189 155.606 18.7531 154.665ZM64.2471 95.4333C76.6396 84.9157 92.7833 76.5307 110.569 76.5276C110.41 76.5736 110.382 76.7414 110.477 76.8499C96.9828 126.259 161.77 145.467 173.541 91.2542C185.898 98.2662 195.269 116.52 199.545 128.582C188.466 129.329 178.498 135.415 172.043 143.029C171.486 142.206 171.366 141.229 172.868 141.468C173.211 141.182 171.641 141.346 171.509 141.579C174.496 136.032 177.57 130.291 179.313 124.238C179.364 124.086 179.116 124 179.022 124.132C176.402 127.761 173.649 131.312 171.093 134.977C162.448 149.695 145.192 162.628 145.926 180.206C145.922 180.208 145.92 180.209 145.918 180.211C146.253 180.72 146.119 181.427 146.629 181.872C143.971 192.108 137.342 202.568 126.578 207.839C118.445 211.099 109.594 207.321 102.575 203.626C102.316 201.465 102.055 199.305 101.794 197.145C103.072 196.865 102.909 194.831 102.947 193.937C103.215 190.171 102.096 186.476 99.7941 183.249C98.7323 178.459 95.7548 174.201 91.4498 171.091C88.575 168.955 85.3805 167.18 82.4529 165.104C74.6798 159.613 70.5153 151.453 63.6438 145.241C64.4718 142.635 64.6467 140.027 63.761 137.347C68.6724 134.59 95.4363 119.402 90.4687 114.088C89.7497 113.158 88.1893 113.323 87.7789 114.393C87.2609 115.848 86.4922 117.193 85.2199 118.26C76.2218 111.161 64.2484 106.451 51.9628 106.759C55.8969 102.848 59.9614 99.0301 64.2471 95.4333ZM111.636 77.4141C119.313 80.7331 128.571 78.4371 136.76 78.7282C149.355 79.1619 161.575 84.5499 169.382 93.1635C166.326 104.904 159.039 118.255 144.216 120.949C129.524 123.246 116.539 112.294 113.032 100.58C110.68 93.063 110.631 85.1157 111.636 77.4141ZM217.359 161.282C218.486 163.93 219.553 166.596 220.589 169.272C221.633 171.998 222.861 174.704 223.715 177.481C223.361 178.809 222.512 179.87 221.664 180.985C215.322 189.283 202.425 188.507 193.05 192.536C191.574 193.145 189.791 193.903 188.499 194.972C186.76 195.536 186.266 197.334 186.542 198.794C188.068 206.187 189.311 213.503 189.679 221.001C189.798 223.07 189.874 225.231 189.131 227.206C186.424 225.312 184.856 214.392 184.783 211.166C184.749 210.355 183.576 210.302 183.251 210.985C179.268 220.462 181.341 230.875 180.847 240.76C175.207 233.624 175.192 224.623 174.886 216.287C174.819 214.953 172.474 214.939 172.487 216.287C172.149 225.06 173.606 234.6 172.506 243.14C168.302 234.132 167.122 224.019 168.211 214.37C166.203 219.459 166.274 226.439 166.942 232.154C164.97 232.344 166.289 237.238 165.692 238.64C154.574 216.424 166.052 203.401 178.272 184.643C180.825 179.206 187.853 169.458 185.841 163.92C185.123 161.973 183.848 160.228 182.651 158.486C179.249 153.576 175.729 148.729 172.465 143.75C173.043 143.352 173.609 142.94 174.167 142.521C181.638 136.721 188.455 132.198 198.983 131.544C207.17 140.422 212.876 150.639 217.359 161.282ZM172.463 243.229C172.393 243.407 172.285 243.056 172.495 243.163C172.485 243.185 172.472 243.206 172.463 243.229ZM182.265 228.65C182.315 225.012 182.262 221.337 182.837 217.733C182.611 221.371 182.455 225.012 182.265 228.65ZM178.29 170.662C168.989 173.128 159.475 175.092 150.427 178.221C150.9 164.627 163.192 154.478 170.282 143.131C173.077 148.681 177.666 153.457 180.567 158.979C182.794 162.458 184.825 166.192 182.296 170.005C180.972 169.964 179.497 170.394 178.29 170.662ZM75.8503 185.507C73.0777 182.495 70.1764 179.594 67.1276 176.823C71.6836 178.649 74.9554 181.207 75.9544 185.632C75.9222 185.591 75.888 185.55 75.8503 185.507ZM126.388 240.453C126.049 240.673 125.913 240.781 125.666 240.948C125.905 240.792 126.114 240.53 126.388 240.453ZM247.588 204.363C243.243 194.733 234.051 187.625 224.111 182.334C226.607 179.804 225.566 176.557 224.37 173.747C219.385 159.801 213.768 145.701 203.785 133.794C205.882 132.706 201.515 124.319 200.886 122.299C195.533 110.969 187.506 94.6414 173.334 90.2953C172.593 89.168 170.317 89.1088 170.042 90.7032C159.386 79.8522 142.378 75.1148 126.339 77.4211C121.537 78.1512 116.936 77.068 112.194 76.5638C114.533 76.6476 116.86 76.8927 119.15 77.3302C119.33 77.3647 119.398 77.146 119.226 77.0933C104.733 72.3593 88.5082 76.1661 76.0109 83.396C53.662 96.5355 39.5349 117.187 20.7581 133.579C15.4092 137.906 10.2953 144.065 12.6161 150.73C13.2492 152.445 13.8296 155.162 16.4343 155.162C-9.06746 166.138 1.4706 194.873 6.36155 213.802C11.0668 231.788 15.4951 249.831 20.321 267.791C20.6898 269.126 22.343 269.205 23.2828 268.524C31.1133 270.274 39.352 270.396 47.3992 270.654C51.5113 279.176 50.7722 281.159 45.1315 288.741C45.2185 288.728 45.3207 288.718 45.4455 288.715C45.3129 288.721 45.1639 288.757 45.054 288.835C45.0773 288.806 45.096 288.791 45.1315 288.741C44.7306 288.802 44.7325 288.94 44.8308 288.968C44.8987 288.917 44.9689 288.871 45.0443 288.831C45.0406 288.841 45.0406 288.846 45.0521 288.836C44.9933 288.96 44.8932 288.986 44.8308 288.968C41.0215 293.097 39.0632 298.593 39.8867 303.864C37.0978 306.588 37.4125 311.145 39.4288 314.181C41.9297 318.411 47.4807 319.553 52.5022 319.936C58.6656 320.64 64.8883 320.926 71.1031 320.78C74.1744 320.707 77.2403 320.533 80.2968 320.253C85.5286 319.76 93.4911 319.723 94.2792 313.882C94.4532 311.708 93.3922 307.161 90.5837 306.601C87.9433 297.79 84.7116 288.83 78.7552 281.24C80.5414 279.908 78.7242 277.619 77.3842 276.547C76.103 274.225 74.8118 271.905 73.3158 269.679C73.7298 268.34 72.6996 267.509 72.9039 266.182C72.9517 256.091 71.7581 246.036 70.9535 235.974C79.1475 240.976 95.3516 239.452 105.408 240.137C103.849 243.177 99.5376 240.172 96.8627 242.752C91.0698 253.627 99.0678 276.898 103.264 288.165C104.463 291.572 106.984 294.513 110.467 296.404C117.596 300.313 125.181 303.806 133.203 306.104C137.55 307.153 142.269 308.395 146.775 307.463C150.27 306.725 152.556 303.065 150.665 300.256C154.184 297.502 154.108 292.925 151.034 289.999C147.516 286.401 141.634 285.606 137.672 282.608C138.132 278.284 138.371 273.977 138.999 269.672C140.458 269.61 141.915 270.152 143.283 269.564C145.896 267.373 141.436 266.463 139.325 267.033C139.402 266.404 139.478 265.778 139.556 265.15C144.18 266.048 144.334 262.152 139.898 262.495C140.314 260.658 140.54 258.79 140.533 256.936C140.98 256.352 140.951 255.64 140.584 255.092C143.474 254.71 146.558 254.693 149.358 253.96C149.419 257.127 154.934 279.85 160.905 272.264C164.105 269.318 168.47 267.566 172.743 266.056C177.968 264.181 183.164 262.245 188.295 260.183C203.554 254.042 218.315 246.891 231.941 238.302C245.69 230.605 254.508 218.569 247.588 204.363Z" fill="black"/>
<g clip-path="url(#clip0_3_13)">
<path fill-rule="evenodd" clip-rule="evenodd" d="M176.654 31.3256C175.203 26.0646 175.41 25.4955 173.247 20.4703C166.073 5.87109 118.136 10.7593 113.243 25.3325C110.589 33.2386 111.212 44.373 110.522 51.2285C110.31 54.8633 110.102 58.4983 109.887 62.1328C109.813 63.3879 109.738 64.6431 109.661 65.8981C109.512 68.3413 109.367 70.7844 109.232 73.2284C108.331 80.7573 112.091 81.523 118.541 81.3002C120.246 85.4398 123.008 88.8953 126.419 91.7068C125.596 93.9605 128.581 95.1272 130.192 96.0284C138.955 100.952 149.72 103.955 159.427 101.187C162.279 100.373 174.057 97.5558 177.679 88.8343C179.457 84.5514 183.072 62.3719 178.305 42.4204L176.654 31.3256Z" fill="white"/>
<path fill-rule="evenodd" clip-rule="evenodd" d="M146.013 -2.99082C147.368 -3.23205 148.884 -3.13919 149.661 -1.79998C149.829 -1.5113 149.936 -1.22014 149.987 -0.933316C153.691 -1.77109 157.536 -1.86189 161.319 -1.313C162.447 -1.15019 162.843 0.362351 162.347 1.22716C162.296 1.31589 162.244 1.40235 162.189 1.48716C163.374 1.58394 164.558 1.79029 165.731 2.10827C166.565 2.33526 167.345 3.42272 166.974 4.31414C166.941 4.39256 166.906 4.47097 166.871 4.54918C168.714 4.86097 170.476 5.58938 172.016 6.76557C172.201 6.90383 172.371 7.08335 172.512 7.28764C175.956 6.89743 179.501 7.61367 182.575 9.2851C183.437 9.7533 183.853 11.103 183.269 11.9449C183.086 12.207 182.895 12.4567 182.69 12.6981C184.027 13.1954 185.211 14 186.008 15.3105C186.876 16.7322 187.142 18.5626 186.677 20.1267C187.649 21.1234 188.158 22.6501 187.811 24.1812C187.495 25.5784 186.644 26.4655 185.553 26.9981C185.775 27.6791 185.596 28.4529 185.094 28.9789C184.323 29.7857 183.4 30.4047 182.395 30.8114C182.393 31.0735 182.327 31.3438 182.196 31.5956C181.29 33.3452 179.335 34.5072 177.348 34.6826C178.017 37.5073 178.566 40.3675 179.099 43.211C180.047 48.2686 180.781 53.3757 181.228 58.5033L181.282 59.1374C182.011 67.8141 182.18 76.9038 180.426 85.463C179.309 90.9127 175.921 95.5061 171.401 98.6178C166.805 101.783 161.19 103.358 155.666 103.607C152.848 103.733 150.004 103.494 147.243 102.912C145.933 102.635 144.667 102.243 143.423 101.744C142.084 101.205 140.98 100.411 139.848 99.5175C139.26 99.0532 139.596 97.9575 140.293 97.819C140.792 97.7181 141.284 97.6088 141.78 97.518C142.235 97.4332 142.732 97.8915 142.637 98.3145L143.597 98.5632C143.917 98.6463 144.237 98.7301 144.556 98.8163L145.035 98.9478C146.394 99.3297 147.785 99.6514 149.179 99.8807C152.017 100.345 154.97 100.355 157.823 99.9942C162.62 99.3896 167.519 97.6686 171.249 94.497C173.078 92.9411 174.602 91.0984 175.707 88.9586C177.112 86.2408 177.537 83.2136 177.889 80.2073C178.909 71.5138 178.595 62.808 177.803 54.1124C177.41 49.7873 176.872 45.4705 176.302 41.164C176.009 38.9561 175.693 36.744 175.433 34.5278C174.852 34.371 174.299 34.111 173.802 33.7334C173.466 33.4775 173.269 33.1801 173.183 32.877C172.682 32.7819 172.202 32.5052 171.855 32.0374L171.811 31.9753C170.903 30.6524 169.332 29.8953 167.878 29.3443C166.996 29.01 166.098 28.7189 165.204 28.4219C164.273 28.1103 163.288 27.6502 162.31 27.5305C161.201 27.3984 160.083 27.7348 158.963 27.6151C157.946 27.5037 157.05 27.1362 156.318 26.4018C156.062 26.1459 155.84 25.8508 155.664 25.533C152.249 26.2674 148.662 25.3411 145.115 25.564C142.781 25.7126 140.722 27.1653 138.363 27.1261C137.72 27.1157 137.096 26.8887 136.643 26.4905C134.418 26.9176 132.156 27.7387 130.064 28.4444C127.997 29.1421 126.008 30.081 123.965 30.8424C123.963 30.8445 123.963 30.8445 123.963 30.8465C123.697 31.7153 122.901 32.0906 122.054 31.9381C119.283 31.4408 116.95 29.6825 114.253 29.0389C113.511 31.7607 112.713 34.4471 112.168 37.2227C111.616 40.0229 111.228 42.8602 110.972 45.7037C110.713 48.5575 110.59 51.4402 110.584 54.3043C110.582 55.7653 110.619 57.2301 110.668 58.6911C110.708 59.9151 110.94 61.4626 110.5 62.6397L110.461 62.7397H110.459C110.406 62.9111 110.166 63.0143 110.03 62.8554C109.204 61.8895 109.007 60.3524 108.777 59.1389C108.499 57.6657 108.32 56.178 108.177 54.6858C107.889 51.6917 107.826 48.7102 107.978 45.7037C108.275 39.7856 109.218 33.5351 111.232 27.9411C110.613 27.9987 110.336 27.0807 110.295 26.5627C110.217 25.5218 110.379 24.4173 110.554 23.3733L110.738 22.2926C110.912 21.2725 111.096 20.279 111.441 19.2868C112.27 16.9054 113.461 14.6687 114.946 12.6362C117.975 8.49065 122.173 5.35188 126.953 3.5424C127.253 3.42891 127.536 3.43097 127.786 3.51743C132.135 1.15906 136.811 -0.656808 141.561 -1.94855C143.029 -2.34681 144.516 -2.72236 146.013 -2.99082ZM109.891 63.5425C111.866 62.2963 115.941 61.9703 117.042 64.6258C117.087 64.7331 116.96 64.828 116.866 64.8033L116.596 64.7348C115.561 64.4767 114.667 64.3284 113.605 64.756C112.672 65.1316 111.765 65.7194 111.148 66.5283C109.689 68.4413 109.531 71.0397 109.667 73.3601L109.674 73.4722C109.801 75.5086 110.32 77.989 112.299 78.996C113.301 79.5056 114.386 79.4685 115.475 79.4602C116.716 79.452 117.983 79.5882 119.169 79.9722C119.831 80.1866 120.143 81.0698 119.593 81.5879C119.411 81.7592 119.22 81.9199 119.019 82.0644C119.62 82.7084 120.21 83.3604 120.783 84.0476C121.753 85.2133 122.784 86.3399 123.861 87.4067C124.903 88.4364 126.006 89.4331 127.195 90.2874C128.446 91.1831 129.943 91.8123 131.026 92.9101C131.731 93.6243 131.61 94.6207 131.026 95.3429C129.575 97.1379 127.105 95.2509 125.718 94.1896L125.551 94.0615C124.109 92.9637 122.739 91.7793 121.572 90.3844C120.383 88.9606 119.353 87.446 118.592 85.7477C118.145 84.749 117.86 83.8062 117.706 82.8198C115.213 83.9093 112.069 83.5625 109.834 82.0293C106.866 79.9947 106.034 76.26 106.023 72.8509L106.024 72.6488C106.046 69.3351 106.911 65.4231 109.891 63.5425ZM115.517 68.3453L115.608 68.3463C116.707 68.3703 117.686 68.7683 118.619 69.3167L118.715 69.374C119.622 69.9167 120.922 70.3519 121.402 71.3673C121.689 71.9802 121.668 72.6818 121.168 73.1892C120.262 74.1097 118.894 73.957 117.914 73.2387C117.181 72.7003 116.699 71.8935 115.982 71.3485C114.632 70.3211 112.504 70.3789 111.099 71.2683C111.013 71.324 110.929 71.2187 110.968 71.1362C111.83 69.36 113.54 68.3384 115.517 68.3453Z" fill="black"/>
<path fill-rule="evenodd" clip-rule="evenodd" d="M154.688 87.3763L155.197 87.2408C157.021 86.7436 158.914 85.9542 160.656 87.036C161.285 87.4266 161.38 88.2573 160.882 88.7949C159.472 90.3201 157.389 90.0242 155.481 90.0395L155.388 90.0405C153.468 90.067 151.563 89.9712 149.663 89.6958C149.412 89.6595 149.363 89.243 149.591 89.1432C151.245 88.4176 152.946 87.8454 154.688 87.3763ZM157.783 59.4904C159.586 60.587 162.333 63.1441 160.393 65.8627C158.11 68.2598 154.823 65.5114 153.203 64.2684C151.701 63.305 150.014 65.7826 151.407 66.9075C163.112 75.5787 167.862 59.7772 158.695 58.2011C157.685 58.0274 157.31 59.1512 157.783 59.4904ZM170.318 45.0695C173.226 44.9804 173.229 49.604 170.318 49.5916C169.449 49.5877 168.58 49.5875 167.711 49.5856C168.215 51.4278 167.927 53.6246 167.015 55.172C166.413 56.1933 164.973 56.3789 164.132 55.5437C162.68 54.1017 162.394 51.9928 162.907 50.0806L162.802 49.8305C162.767 49.7485 162.743 49.6656 162.722 49.5823C159.913 49.5846 157.104 49.5914 154.295 49.596L150.082 49.6004C147.346 49.6014 144.609 49.6236 141.873 49.598C141.907 49.6489 141.941 49.6996 141.968 49.7576C142.139 50.1172 142.211 50.5711 142.265 50.9598C142.357 51.6268 142.346 52.3452 142.241 53.0096C142.164 53.4951 142.023 54.0732 141.753 54.5308L141.751 54.5403C141.624 55.0831 141.464 55.6027 141.044 55.9943C140.918 56.1116 140.795 56.1952 140.665 56.2545C140.42 56.5113 140.104 56.6812 139.69 56.6866C139.469 56.689 139.228 56.6248 138.994 56.5335C138.634 56.5636 138.263 56.4007 137.945 56.2564C137.689 56.1405 137.455 55.9867 137.266 55.786C137.178 55.765 137.088 55.7303 136.999 55.6751C136.452 55.3383 136.243 54.6631 136.214 54.0534C136.212 54.0164 136.214 53.9774 136.213 53.9399C136.192 53.8573 136.174 53.7741 136.16 53.6905C135.978 52.6071 136.2 51.387 136.431 50.3341C136.489 50.0706 136.537 49.7645 136.609 49.4685C136.063 49.4473 135.517 49.4262 134.971 49.4038C133.604 49.3479 131.934 49.5311 130.669 48.9527C130.577 48.9109 130.602 48.7881 130.669 48.7401C131.837 47.9046 133.652 47.7694 135.059 47.4943L135.178 47.4703C136.856 47.126 138.532 46.8365 140.227 46.5892C143.488 46.1133 146.792 45.8572 150.082 45.6728C156.818 45.2953 163.575 45.2757 170.318 45.0695Z" fill="black"/>
</g>
<defs>
<clipPath id="clip0_3_13">
<rect width="97" height="117" fill="white" transform="translate(97)"/>
</clipPath>
</defs>
</svg>
