<svg xmlns="http://www.w3.org/2000/svg" viewBox="0 0 624.25 108.25"><defs><style>.cls-1{fill:#1e1e24;stroke:#1e1e24;stroke-miterlimit:10;stroke-width:0.25px;}</style></defs><g id="Layer_2" data-name="Layer 2"><g id="Layer_1-2" data-name="Layer 1"><path class="cls-1" d="M.13,108.13h624v-49l-26-4-57,14-10-12-18,1-4,5-12,6-49-13-30-4-12,13-3-20-42-6-3,18-15-1-16-17-15,3-61,13-51-19-15,13-17,23-6-16-38-20-28,16-29-11-66,4Q.62,76.63.13,108.13Z"/><path class="cls-1" d="M.13,41.13l69-5,26,10,27-16,43,21,3,12,13-17,18-16,52,20,80-17,12,19h11l3-16,52,5v12l8-7,31,4,47,15,10-5,5-8h25l7,13,55-14,27,3V.13H.13Z"/></g></g></svg>