<svg xmlns="http://www.w3.org/2000/svg" viewBox="0 0 651.25 111.25"><defs><style>.cls-1{fill:#1e1e24;stroke:#1e1e24;stroke-miterlimit:10;stroke-width:0.25px;}</style></defs><g id="Layer_2" data-name="Layer 2"><g id="Layer_1-2" data-name="Layer 1"><polygon class="cls-1" points="0.13 0.13 651.13 0.13 651.13 68.13 587.13 64.13 570.13 68.13 548.13 59.13 526.13 59.13 522.13 70.13 510.13 65.13 462.13 70.13 400.13 65.13 391.13 74.13 381.13 61.13 375.13 69.13 331.13 63.13 314.13 74.13 273.13 67.13 241.13 66.13 183.13 72.13 173.13 68.13 142.13 59.13 113.13 59.13 104.13 67.13 95.13 74.13 84.13 65.13 56.13 55.13 32.13 62.13 0.13 59.13 0.13 0.13"/><polygon class="cls-1" points="0.13 62.13 31.13 64.13 55.13 57.13 82.13 67.13 94.13 76.13 115.13 61.13 140.13 61.13 174.13 71.13 186.13 76.13 225.13 70.13 240.13 69.13 275.13 69.13 317.13 76.13 332.13 66.13 377.13 71.13 380.13 66.13 391.13 76.13 400.13 69.13 463.13 73.13 509.13 66.13 525.13 73.13 528.13 61.13 548.13 61.13 570.13 71.13 587.13 66.13 651.13 71.13 651.13 111.13 0.13 111.13 0.13 62.13"/></g></g></svg>