<svg xmlns="http://www.w3.org/2000/svg" viewBox="0 0 161.91 269.63"><defs><style>.cls-1,.cls-13,.cls-14{fill:#bfd7ea;}.cls-1,.cls-11,.cls-13,.cls-14,.cls-25,.cls-26,.cls-5,.cls-6{stroke:#333;}.cls-1,.cls-10,.cls-11,.cls-12,.cls-13,.cls-14,.cls-16,.cls-17,.cls-21,.cls-25,.cls-26,.cls-3,.cls-4,.cls-5,.cls-6,.cls-8{stroke-miterlimit:10;}.cls-1,.cls-12,.cls-16{stroke-width:4px;}.cls-2{fill:#087e8b;opacity:0.2;}.cls-17,.cls-21,.cls-24,.cls-25,.cls-26,.cls-3,.cls-4{fill:none;}.cls-12,.cls-16,.cls-17,.cls-21,.cls-3,.cls-4,.cls-8{stroke:#000;}.cls-13,.cls-26,.cls-3,.cls-8{stroke-width:2px;}.cls-5,.cls-6,.cls-8{fill:#ebe0e0;}.cls-11,.cls-17,.cls-21,.cls-6{stroke-width:3px;}.cls-7,.cls-9{fill:#c2a3a3;}.cls-7{opacity:0.7;}.cls-20,.cls-9{opacity:0.4;}.cls-10,.cls-15{fill:#333;}.cls-10{stroke:#233;}.cls-11{fill:#404040;}.cls-12{fill:#100700;}.cls-16{fill:#1f0000;}.cls-17{opacity:0.6;}.cls-18{fill:#c7c7c7;}.cls-19{fill:#4d4d4c;}.cls-20{fill:#434344;}.cls-22{font-size:10.17px;fill:#3fa9f5;font-family:Impact;}.cls-23{fill:#6e7c91;opacity:0.46;}.cls-27{fill:#df9f9f;opacity:0.55;}</style></defs><g id="Layer_2" data-name="Layer 2"><g id="Layer_1-2" data-name="Layer 1"><path class="cls-1" d="M129.14,168s-49.3-63.19-102.07,0L19,180.1H137Z"/><path class="cls-2" d="M122.2,180.1H137s-12.88-25.58-40.39-36.32l-1,5.06S123.54,163.3,122.2,180.1Z"/><path class="cls-3" d="M128.64,168s-49.3-63.19-102.07,0L18.5,180.1h118Z"/><path class="cls-4" d="M97.53,139.83l-1.68,8.93s-16.47,24.54-35.3,0l-2.69-8.93Z"/><path class="cls-5" d="M97.32,139.92l-1.68,8.92s-16.47,24.54-35.29,0l-2.69-8.92Z"/><ellipse class="cls-6" cx="149.95" cy="89.94" rx="10.47" ry="11.7"/><ellipse class="cls-6" cx="11.97" cy="90.34" rx="10.47" ry="11.7"/><ellipse class="cls-7" cx="11.97" cy="89.68" rx="4.1" ry="5"/><circle class="cls-7" cx="148.48" cy="89.68" r="4.1"/><circle class="cls-8" cx="80.57" cy="79.61" r="68.99"/><path class="cls-9" d="M134.19,65.56A67.42,67.42,0,0,1,120.4,134a68.21,68.21,0,0,0,21.87-26.37,65.6,65.6,0,0,0,6.18-29.08,59.84,59.84,0,0,0-1.82-12.66Z"/><path class="cls-10" d="M87.55,4.1S81.84-4,74.78,4.1Z"/><path class="cls-11" d="M75.36,64.28,150,65.7S147.74,7.82,81,4.12c0,0-57.1-3-69,59.49Z"/><path class="cls-12" d="M55.88,51.28h48.06s-.67-8.83-9.74-8.49H63.27S58.57,43.29,55.88,51.28Z"/><polygon class="cls-13" points="54.68 62.44 104.43 62.44 103.08 52.73 56.7 52.73 54.68 62.44"/><path class="cls-14" d="M85.17,64.22H71.37s-7.07-7,0-11.27h32.54l1.42,11.27Z"/><ellipse class="cls-15" cx="76.75" cy="58.69" rx="0.93" ry="0.87"/><ellipse class="cls-15" cx="84.7" cy="58.74" rx="0.93" ry="0.87"/><ellipse class="cls-15" cx="93.26" cy="58.69" rx="0.93" ry="0.87"/><path class="cls-16" d="M50.07,123.26h60.7s-1-5.35-2.58-6.39-27.77-23.82-55.22,0A24.05,24.05,0,0,0,50.07,123.26Z"/><path class="cls-17" d="M53.17,63.91l52.77,0-1.35-11.76s-1-11.09-10.41-9.75l-29.85-.95a12.81,12.81,0,0,0-3.09,1.4,13.71,13.71,0,0,0-5.38,6.61Z"/><path class="cls-18" d="M76.4,268.31h63s5.73.32,5.73-5.09,7.31-89.35,7.31-89.35.64-7.32-7.31-6.36l-133.24-.09s-6.36,1.36-5.72,6.45l8.26,89.35s.32,4.78,3.18,5.09Z"/><path class="cls-19" d="M79.44,268.13h60.07s5.46.3,5.46-4.86S152,178,152,178s.6-7-7-6.06l-127.12-.09s-6.06,1.3-5.46,6.15l7.89,85.25s.3,4.56,3,4.86Z"/><path class="cls-20" d="M14.35,254.57v7.75s1.24,4.34,5.59,5H138.59a5.11,5.11,0,0,0,5-4.65l6.83-89.28s.62-5.27-4.66-4.65l-9.63,0S138.9,269.76,14.35,254.57Z"/><path class="cls-21" d="M75.43,268.13h63s5.73.32,5.73-5.09,7.31-89.35,7.31-89.35.64-7.32-7.31-6.36l-133.24-.09s-6.36,1.36-5.72,6.45L13.42,263s.32,4.78,3.18,5.09Z"/><text class="cls-22" transform="translate(65.44 228.15)">Legion</text><path class="cls-23" d="M111.08,124s.45-7.78-14.11-13.67c0,0,13.79,11.39,8.36,13.67Z"/><line class="cls-24" x1="34.69" y1="117.13" x2="31.66" y2="120.61"/><line class="cls-25" x1="40.74" y1="123.97" x2="38.05" y2="127.93"/><line class="cls-25" x1="123.76" y1="120.61" x2="127.97" y2="123.97"/><line class="cls-25" x1="113.34" y1="131.96" x2="115.69" y2="137.34"/><line class="cls-26" x1="107.29" y1="133.98" x2="107.29" y2="134.65"/><line class="cls-25" x1="96.97" y1="131.96" x2="96.97" y2="134.65"/><line class="cls-26" x1="94.19" y1="143.05" x2="94.19" y2="144.06"/><line class="cls-25" x1="86.78" y1="138.68" x2="84.7" y2="140.7"/><line class="cls-26" x1="83.77" y1="145.41" x2="83.77" y2="148.53"/><line class="cls-25" x1="79.3" y1="137.16" x2="76.94" y2="139.88"/><line class="cls-26" x1="66.28" y1="133.31" x2="65.61" y2="134.65"/><line class="cls-25" x1="65.95" y1="139.69" x2="65.95" y2="143.05"/><line class="cls-26" x1="60.91" y1="138.52" x2="59.9" y2="139.69"/><line class="cls-25" x1="60.4" y1="129.61" x2="60.4" y2="133.31"/><line class="cls-25" x1="52.65" y1="133.45" x2="55.2" y2="131.98"/><line class="cls-25" x1="40.74" y1="115.01" x2="37.04" y2="117.13"/><line class="cls-26" x1="28.64" y1="116.07" x2="27.97" y2="117.13"/><line class="cls-26" x1="29.28" y1="124.57" x2="28.67" y2="123.37"/><line class="cls-25" x1="35.7" y1="125.95" x2="33.02" y2="129.61"/><line class="cls-25" x1="25.95" y1="110.3" x2="23.93" y2="113.48"/><line class="cls-26" x1="31.66" y1="110.3" x2="31.33" y2="111.89"/><line class="cls-26" x1="33.18" y1="118.87" x2="31.66" y2="120.61"/><line class="cls-26" x1="19.9" y1="106.06" x2="18.39" y2="107.79"/><line class="cls-25" x1="45.78" y1="134.65" x2="44.63" y2="138.52"/><line class="cls-25" x1="53.92" y1="138.52" x2="53.17" y2="142.95"/><line class="cls-26" x1="49.48" y1="125.95" x2="47.89" y2="127.78"/><line class="cls-26" x1="43.43" y1="131.96" x2="43.09" y2="131.96"/><line class="cls-26" x1="78.12" y1="129.61" x2="77.69" y2="131.46"/><line class="cls-25" x1="72" y1="144.06" x2="72" y2="148.61"/><line class="cls-26" x1="72" y1="133.98" x2="72" y2="134.65"/><line class="cls-25" x1="72" y1="127.78" x2="74.78" y2="129.61"/><line class="cls-25" x1="134.44" y1="116.07" x2="136.85" y2="117.13"/><line class="cls-25" x1="122.08" y1="128.69" x2="125.86" y2="130.53"/><line class="cls-26" x1="139.48" y1="110.3" x2="140.52" y2="111.09"/><line class="cls-26" x1="142.25" y1="103.88" x2="144.31" y2="106.06"/><line class="cls-25" x1="129.14" y1="111.89" x2="129.81" y2="115.01"/><line class="cls-26" x1="118.05" y1="122.29" x2="118.72" y2="123.97"/><line class="cls-25" x1="101.24" y1="136.58" x2="103.94" y2="139.69"/><line class="cls-25" x1="92.32" y1="131.46" x2="94.19" y2="136.58"/><line class="cls-26" x1="134.44" y1="110.3" x2="135.64" y2="111.09"/><line class="cls-26" x1="127.79" y1="118.87" x2="129.47" y2="118.87"/><line class="cls-25" x1="121.74" y1="116.07" x2="123.76" y2="120.61"/><line class="cls-25" x1="80.57" y1="141.37" x2="79.49" y2="145.41"/><line class="cls-25" x1="85.63" y1="129.61" x2="85.74" y2="134.65"/><line class="cls-25" x1="100.9" y1="140.7" x2="102.59" y2="143.05"/><line class="cls-25" x1="103.94" y1="128.69" x2="105.33" y2="133.31"/><line class="cls-25" x1="43.09" y1="127.78" x2="41.07" y2="131"/><line class="cls-26" x1="45.2" y1="118.34" x2="43.43" y2="118.34"/><line class="cls-21" x1="53.92" y1="123.97" x2="61.61" y2="114.06"/><line class="cls-24" x1="63.26" y1="122.29" x2="65.95" y2="118.34"/><line class="cls-24" x1="73.39" y1="122.29" x2="74.78" y2="118.34"/><line class="cls-24" x1="81.17" y1="123.97" x2="81.17" y2="119.02"/><line class="cls-24" x1="94.19" y1="123.97" x2="93.26" y2="119.02"/><line class="cls-24" x1="103.94" y1="123.13" x2="99.22" y2="116.6"/><circle class="cls-15" cx="51.18" cy="81.6" r="4.37"/><circle class="cls-15" cx="108.59" cy="82.07" r="4.37"/><circle class="cls-27" cx="41.24" cy="98.84" r="5.38"/><circle class="cls-27" cx="115.92" cy="99.47" r="5.38"/></g></g></svg>