<svg xmlns="http://www.w3.org/2000/svg" viewBox="0 0 148.33 102.89"><defs><style>.cls-1{fill:#c7c7c7;}.cls-2{fill:#4d4d4c;opacity:0.7;}.cls-3{fill:#434344;opacity:0.33;}.cls-4{fill:none;stroke:#000;stroke-miterlimit:10;stroke-width:2px;}.cls-5{font-size:10.17px;fill:#0fff99;font-family:Impact;}</style></defs><g id="Layer_2" data-name="Layer 2"><g id="Layer_1-2" data-name="Layer 1"><path class="cls-1" d="M72.29,102.07h63S141,102.39,141,97s7.31-89.35,7.31-89.35S148.92.31,141,1.27L7.74,1.18S1.38,2.54,2,7.63L10.28,97s.32,4.78,3.18,5.09Z"/><path class="cls-2" d="M74.33,101.89H134.4s5.46.3,5.46-4.86,7-85.25,7-85.25.61-7-7-6.06L12.74,5.63s-6.07,1.3-5.46,6.15L15.17,97s.3,4.56,3,4.86Z"/><path class="cls-3" d="M10.24,88.33v7.75s1.24,4.34,5.59,5H134.48a5.11,5.11,0,0,0,5-4.65l6.83-89.28s.62-5.27-4.66-4.65l-9.63,0S134.79,103.52,10.24,88.33Z"/><path class="cls-4" d="M71.32,101.89h63s5.72.32,5.72-5.09,7.32-89.35,7.32-89.35S148,.13,140,1.09L6.77,1S.41,2.36,1,7.45L9.31,96.8s.32,4.78,3.18,5.09Z"/><text class="cls-5" transform="translate(61.32 61.91)">Legion</text></g></g></svg>